<?xml version="1.0" encoding="UTF-8"?>
<svg width="4000px" height="300px" viewBox="0 0 4000 300" version="1.1" xmlns="http://www.w3.org/2000/svg" xmlns:xlink="http://www.w3.org/1999/xlink">
    <title>Group 3</title>
    <defs>
        <radialGradient cx="50%" cy="50%" fx="50%" fy="50%" r="50%" gradientTransform="translate(0.5, 0.5), scale(0.6293, 1), rotate(90), translate(-0.5, -0.5)" id="radialGradient-1">
            <stop stop-color="#FFFFFF" stop-opacity="0" offset="0%"></stop>
            <stop stop-color="#90CA6D" offset="100%"></stop>
        </radialGradient>
        <radialGradient cx="50%" cy="50%" fx="50%" fy="50%" r="50%" gradientTransform="translate(0.5, 0.5), scale(0.5791, 1), rotate(90), translate(-0.5, -0.5)" id="radialGradient-2">
            <stop stop-color="#FFFFFF" stop-opacity="0" offset="0.0409746503%"></stop>
            <stop stop-color="#90CA6D" offset="100%"></stop>
        </radialGradient>
        <radialGradient cx="50%" cy="50%" fx="50%" fy="50%" r="9500%" gradientTransform="translate(0.5, 0.5), scale(1, 0.0053), rotate(90), translate(-0.5, -0.5)" id="radialGradient-3">
            <stop stop-color="#C3E7A6" stop-opacity="0" offset="0.00546328671%"></stop>
            <stop stop-color="#90CA6D" offset="100%"></stop>
        </radialGradient>
    </defs>
    <g id="Page-1" stroke="none" stroke-width="1" fill="none" fill-rule="evenodd">
        <g id="Group-3">
            <rect id="Rectangle" stroke-opacity="0" stroke="#043647" x="0.5" y="0.5" width="3999" height="299"></rect>
            <g id="Group-2" transform="translate(2256, 43)">
                <line x1="258.75283" y1="60.75" x2="54.7528302" y2="188.75" id="Path-3" stroke="url(#radialGradient-1)" stroke-width="3" opacity="0.446591332" stroke-linecap="round"></line>
                <line x1="7.34692198" y1="20.5" x2="322.346922" y2="202.5" id="Path-4" stroke="url(#radialGradient-2)" stroke-width="3" opacity="0.445824033" stroke-linecap="round"></line>
                <line x1="171.5" y1="10" x2="171.5" y2="200" id="Path-5" stroke="url(#radialGradient-3)" stroke-width="3" opacity="0.454450335" stroke-linecap="round"></line>
                <circle id="Oval" fill="#427858" cx="11" cy="21" r="11"></circle>
                <circle id="Oval" fill="#427858" cx="54.5" cy="188.5" r="16.5"></circle>
                <circle id="Oval" fill="#427858" cx="321.5" cy="201.5" r="6.5"></circle>
                <circle id="Oval" fill="#427858" cx="259" cy="61" r="11"></circle>
                <circle id="Oval" fill="#427858" cx="171.5" cy="200.5" r="9.5"></circle>
                <circle id="Oval" fill="#427858" cx="171" cy="8" r="8"></circle>
                <g id="Group" transform="translate(11, 5)" fill="#90CA6D" fill-rule="nonzero">
                    <polyline id="Path" points="96.4941532 2.56 96.4941532 5.44 94 6.88 91.5058468 5.44 91.5058468 2.56 94 1.12"></polyline>
                    <polyline id="Path" points="84.4941532 9.56 84.4941532 12.44 82 13.88 79.5058468 12.44 79.5058468 9.56 82 8.12"></polyline>
                    <polyline id="Path" points="92.4941532 9.56 92.4941532 12.44 90 13.88 87.5058468 12.44 87.5058468 9.56 90 8.12"></polyline>
                    <polyline id="Path" points="100.494153 9.56 100.494153 12.44 98 13.88 95.5058468 12.44 95.5058468 9.56 98 8.12"></polyline>
                    <polyline id="Path" points="109.494153 9.56 109.494153 12.44 107 13.88 104.505847 12.44 104.505847 9.56 107 8.12"></polyline>
                    <polyline id="Path" points="142.494153 9.56 142.494153 12.44 140 13.88 137.505847 12.44 137.505847 9.56 140 8.12"></polyline>
                    <polyline id="Path" points="63.4941532 16.56 63.4941532 19.44 61 20.88 58.5058468 19.44 58.5058468 16.56 61 15.12"></polyline>
                    <polyline id="Path" points="71.4941532 16.56 71.4941532 19.44 69 20.88 66.5058468 19.44 66.5058468 16.56 69 15.12"></polyline>
                    <polyline id="Path" points="87.4941532 16.56 87.4941532 19.44 85 20.88 82.5058468 19.44 82.5058468 16.56 85 15.12"></polyline>
                    <polyline id="Path" points="96.4941532 16.56 96.4941532 19.44 94 20.88 91.5058468 19.44 91.5058468 16.56 94 15.12"></polyline>
                    <polyline id="Path" points="105.494153 16.56 105.494153 19.44 103 20.88 100.505847 19.44 100.505847 16.56 103 15.12"></polyline>
                    <polyline id="Path" points="138.494153 16.56 138.494153 19.44 136 20.88 133.505847 19.44 133.505847 16.56 136 15.12"></polyline>
                    <polyline id="Path" points="146.494153 16.56 146.494153 19.44 144 20.88 141.505847 19.44 141.505847 16.56 144 15.12"></polyline>
                    <polyline id="Path" points="154.494153 16.56 154.494153 19.44 152 20.88 149.505847 19.44 149.505847 16.56 152 15.12"></polyline>
                    <polyline id="Path" points="59.4941532 23.56 59.4941532 26.44 57 27.88 54.5058468 26.44 54.5058468 23.56 57 22.12"></polyline>
                    <polyline id="Path" points="67.4941532 23.56 67.4941532 26.44 65 27.88 62.5058468 26.44 62.5058468 23.56 65 22.12"></polyline>
                    <polyline id="Path" points="75.4941532 23.56 75.4941532 26.44 73 27.88 70.5058468 26.44 70.5058468 23.56 73 22.12"></polyline>
                    <polyline id="Path" points="84.4941532 23.56 84.4941532 26.44 82 27.88 79.5058468 26.44 79.5058468 23.56 82 22.12"></polyline>
                    <polyline id="Path" points="92.4941532 23.56 92.4941532 26.44 90 27.88 87.5058468 26.44 87.5058468 23.56 90 22.12"></polyline>
                    <polyline id="Path" points="100.494153 23.56 100.494153 26.44 98 27.88 95.5058468 26.44 95.5058468 23.56 98 22.12"></polyline>
                    <polyline id="Path" points="109.494153 23.56 109.494153 26.44 107 27.88 104.505847 26.44 104.505847 23.56 107 22.12"></polyline>
                    <polyline id="Path" points="117.494153 23.56 117.494153 26.44 115 27.88 112.505847 26.44 112.505847 23.56 115 22.12"></polyline>
                    <polyline id="Path" points="142.494153 23.56 142.494153 26.44 140 27.88 137.505847 26.44 137.505847 23.56 140 22.12"></polyline>
                    <polyline id="Path" points="150.494153 23.56 150.494153 26.44 148 27.88 145.505847 26.44 145.505847 23.56 148 22.12"></polyline>
                    <polyline id="Path" points="47.4941532 30.56 47.4941532 33.44 45 34.88 42.5058468 33.44 42.5058468 30.56 45 29.12"></polyline>
                    <polyline id="Path" points="55.4941532 30.56 55.4941532 33.44 53 34.88 50.5058468 33.44 50.5058468 30.56 53 29.12"></polyline>
                    <polyline id="Path" points="63.4941532 30.56 63.4941532 33.44 61 34.88 58.5058468 33.44 58.5058468 30.56 61 29.12"></polyline>
                    <polyline id="Path" points="71.4941532 30.56 71.4941532 33.44 69 34.88 66.5058468 33.44 66.5058468 30.56 69 29.12"></polyline>
                    <polyline id="Path" points="79.4941532 30.56 79.4941532 33.44 77 34.88 74.5058468 33.44 74.5058468 30.56 77 29.12"></polyline>
                    <polyline id="Path" points="87.4941532 30.56 87.4941532 33.44 85 34.88 82.5058468 33.44 82.5058468 30.56 85 29.12"></polyline>
                    <polyline id="Path" points="96.4941532 30.56 96.4941532 33.44 94 34.88 91.5058468 33.44 91.5058468 30.56 94 29.12"></polyline>
                    <polyline id="Path" points="105.494153 30.56 105.494153 33.44 103 34.88 100.505847 33.44 100.505847 30.56 103 29.12"></polyline>
                    <polyline id="Path" points="113.494153 30.56 113.494153 33.44 111 34.88 108.505847 33.44 108.505847 30.56 111 29.12"></polyline>
                    <polyline id="Path" points="121.494153 30.56 121.494153 33.44 119 34.88 116.505847 33.44 116.505847 30.56 119 29.12"></polyline>
                    <polyline id="Path" points="130.494153 30.56 130.494153 33.44 128 34.88 125.505847 33.44 125.505847 30.56 128 29.12"></polyline>
                    <polyline id="Path" points="138.494153 30.56 138.494153 33.44 136 34.88 133.505847 33.44 133.505847 30.56 136 29.12"></polyline>
                    <polyline id="Path" points="146.494153 30.56 146.494153 33.44 144 34.88 141.505847 33.44 141.505847 30.56 144 29.12"></polyline>
                    <polyline id="Path" points="154.494153 30.56 154.494153 33.44 152 34.88 149.505847 33.44 149.505847 30.56 152 29.12"></polyline>
                    <polyline id="Path" points="43.4941532 38.56 43.4941532 41.44 41 42.88 38.5058468 41.44 38.5058468 38.56 41 37.12"></polyline>
                    <polyline id="Path" points="51.4941532 38.56 51.4941532 41.44 49 42.88 46.5058468 41.44 46.5058468 38.56 49 37.12"></polyline>
                    <polyline id="Path" points="59.4941532 38.56 59.4941532 41.44 57 42.88 54.5058468 41.44 54.5058468 38.56 57 37.12"></polyline>
                    <polyline id="Path" points="67.4941532 38.56 67.4941532 41.44 65 42.88 62.5058468 41.44 62.5058468 38.56 65 37.12"></polyline>
                    <polyline id="Path" points="75.4941532 38.56 75.4941532 41.44 73 42.88 70.5058468 41.44 70.5058468 38.56 73 37.12"></polyline>
                    <polyline id="Path" points="84.4941532 38.56 84.4941532 41.44 82 42.88 79.5058468 41.44 79.5058468 38.56 82 37.12"></polyline>
                    <polyline id="Path" points="92.4941532 38.56 92.4941532 41.44 90 42.88 87.5058468 41.44 87.5058468 38.56 90 37.12"></polyline>
                    <polyline id="Path" points="100.494153 38.56 100.494153 41.44 98 42.88 95.5058468 41.44 95.5058468 38.56 98 37.12"></polyline>
                    <polyline id="Path" points="109.494153 38.56 109.494153 41.44 107 42.88 104.505847 41.44 104.505847 38.56 107 37.12"></polyline>
                    <polyline id="Path" points="117.494153 38.56 117.494153 41.44 115 42.88 112.505847 41.44 112.505847 38.56 115 37.12"></polyline>
                    <polyline id="Path" points="125.494153 38.56 125.494153 41.44 123 42.88 120.505847 41.44 120.505847 38.56 123 37.12"></polyline>
                    <polyline id="Path" points="133.494153 38.56 133.494153 41.44 131 42.88 128.505847 41.44 128.505847 38.56 131 37.12"></polyline>
                    <polyline id="Path" points="142.494153 38.56 142.494153 41.44 140 42.88 137.505847 41.44 137.505847 38.56 140 37.12"></polyline>
                    <polyline id="Path" points="150.494153 38.56 150.494153 41.44 148 42.88 145.505847 41.44 145.505847 38.56 148 37.12"></polyline>
                    <polyline id="Path" points="158.494153 38.56 158.494153 41.44 156 42.88 153.505847 41.44 153.505847 38.56 156 37.12"></polyline>
                    <polyline id="Path" points="30.4941532 44.56 30.4941532 47.44 28 48.88 25.5058468 47.44 25.5058468 44.56 28 43.12"></polyline>
                    <polyline id="Path" points="39.4941532 44.56 39.4941532 47.44 37 48.88 34.5058468 47.44 34.5058468 44.56 37 43.12"></polyline>
                    <polyline id="Path" points="47.4941532 44.56 47.4941532 47.44 45 48.88 42.5058468 47.44 42.5058468 44.56 45 43.12"></polyline>
                    <polyline id="Path" points="55.4941532 44.56 55.4941532 47.44 53 48.88 50.5058468 47.44 50.5058468 44.56 53 43.12"></polyline>
                    <polyline id="Path" points="63.4941532 44.56 63.4941532 47.44 61 48.88 58.5058468 47.44 58.5058468 44.56 61 43.12"></polyline>
                    <polyline id="Path" points="71.4941532 44.56 71.4941532 47.44 69 48.88 66.5058468 47.44 66.5058468 44.56 69 43.12"></polyline>
                    <polyline id="Path" points="79.4941532 44.56 79.4941532 47.44 77 48.88 74.5058468 47.44 74.5058468 44.56 77 43.12"></polyline>
                    <polyline id="Path" points="87.4941532 44.56 87.4941532 47.44 85 48.88 82.5058468 47.44 82.5058468 44.56 85 43.12"></polyline>
                    <polyline id="Path" points="96.4941532 44.56 96.4941532 47.44 94 48.88 91.5058468 47.44 91.5058468 44.56 94 43.12"></polyline>
                    <polyline id="Path" points="105.494153 44.56 105.494153 47.44 103 48.88 100.505847 47.44 100.505847 44.56 103 43.12"></polyline>
                    <polyline id="Path" points="113.494153 44.56 113.494153 47.44 111 48.88 108.505847 47.44 108.505847 44.56 111 43.12"></polyline>
                    <polyline id="Path" points="121.494153 44.56 121.494153 47.44 119 48.88 116.505847 47.44 116.505847 44.56 119 43.12"></polyline>
                    <polyline id="Path" points="130.494153 44.56 130.494153 47.44 128 48.88 125.505847 47.44 125.505847 44.56 128 43.12"></polyline>
                    <polyline id="Path" points="138.494153 44.56 138.494153 47.44 136 48.88 133.505847 47.44 133.505847 44.56 136 43.12"></polyline>
                    <polyline id="Path" points="146.494153 44.56 146.494153 47.44 144 48.88 141.505847 47.44 141.505847 44.56 144 43.12"></polyline>
                    <polyline id="Path" points="154.494153 44.56 154.494153 47.44 152 48.88 149.505847 47.44 149.505847 44.56 152 43.12"></polyline>
                    <polyline id="Path" points="162.494153 44.56 162.494153 47.44 160 48.88 157.505847 47.44 157.505847 44.56 160 43.12"></polyline>
                    <polyline id="Path" points="170.494153 44.56 170.494153 47.44 168 48.88 165.505847 47.44 165.505847 44.56 168 43.12"></polyline>
                    <polyline id="Path" points="10.4941532 51.56 10.4941532 54.44 8 55.88 5.50584684 54.44 5.50584684 51.56 8 50.12"></polyline>
                    <polyline id="Path" points="18.4941532 51.56 18.4941532 54.44 16 55.88 13.5058468 54.44 13.5058468 51.56 16 50.12"></polyline>
                    <polyline id="Path" points="26.4941532 51.56 26.4941532 54.44 24 55.88 21.5058468 54.44 21.5058468 51.56 24 50.12"></polyline>
                    <polyline id="Path" points="34.4941532 51.56 34.4941532 54.44 32 55.88 29.5058468 54.44 29.5058468 51.56 32 50.12"></polyline>
                    <polyline id="Path" points="43.4941532 51.56 43.4941532 54.44 41 55.88 38.5058468 54.44 38.5058468 51.56 41 50.12"></polyline>
                    <polyline id="Path" points="51.4941532 51.56 51.4941532 54.44 49 55.88 46.5058468 54.44 46.5058468 51.56 49 50.12"></polyline>
                    <polyline id="Path" points="59.4941532 51.56 59.4941532 54.44 57 55.88 54.5058468 54.44 54.5058468 51.56 57 50.12"></polyline>
                    <polyline id="Path" points="67.4941532 51.56 67.4941532 54.44 65 55.88 62.5058468 54.44 62.5058468 51.56 65 50.12"></polyline>
                    <polyline id="Path" points="75.4941532 51.56 75.4941532 54.44 73 55.88 70.5058468 54.44 70.5058468 51.56 73 50.12"></polyline>
                    <polyline id="Path" points="84.4941532 51.56 84.4941532 54.44 82 55.88 79.5058468 54.44 79.5058468 51.56 82 50.12"></polyline>
                    <polyline id="Path" points="92.4941532 51.56 92.4941532 54.44 90 55.88 87.5058468 54.44 87.5058468 51.56 90 50.12"></polyline>
                    <polyline id="Path" points="100.494153 51.56 100.494153 54.44 98 55.88 95.5058468 54.44 95.5058468 51.56 98 50.12"></polyline>
                    <polyline id="Path" points="109.494153 51.56 109.494153 54.44 107 55.88 104.505847 54.44 104.505847 51.56 107 50.12"></polyline>
                    <polyline id="Path" points="117.494153 51.56 117.494153 54.44 115 55.88 112.505847 54.44 112.505847 51.56 115 50.12"></polyline>
                    <polyline id="Path" points="125.494153 51.56 125.494153 54.44 123 55.88 120.505847 54.44 120.505847 51.56 123 50.12"></polyline>
                    <polyline id="Path" points="133.494153 51.56 133.494153 54.44 131 55.88 128.505847 54.44 128.505847 51.56 131 50.12"></polyline>
                    <polyline id="Path" points="142.494153 51.56 142.494153 54.44 140 55.88 137.505847 54.44 137.505847 51.56 140 50.12"></polyline>
                    <polyline id="Path" points="150.494153 51.56 150.494153 54.44 148 55.88 145.505847 54.44 145.505847 51.56 148 50.12"></polyline>
                    <polyline id="Path" points="158.494153 51.56 158.494153 54.44 156 55.88 153.505847 54.44 153.505847 51.56 156 50.12"></polyline>
                    <polyline id="Path" points="166.494153 51.56 166.494153 54.44 164 55.88 161.505847 54.44 161.505847 51.56 164 50.12"></polyline>
                    <polyline id="Path" points="174.494153 51.56 174.494153 54.44 172 55.88 169.505847 54.44 169.505847 51.56 172 50.12"></polyline>
                    <polyline id="Path" points="6.49415316 58.56 6.49415316 61.44 4 62.88 1.50584684 61.44 1.50584684 58.56 4 57.12"></polyline>
                    <polyline id="Path" points="14.4941532 58.56 14.4941532 61.44 12 62.88 9.50584684 61.44 9.50584684 58.56 12 57.12"></polyline>
                    <polyline id="Path" points="22.4941532 58.56 22.4941532 61.44 20 62.88 17.5058468 61.44 17.5058468 58.56 20 57.12"></polyline>
                    <polyline id="Path" points="30.4941532 58.56 30.4941532 61.44 28 62.88 25.5058468 61.44 25.5058468 58.56 28 57.12"></polyline>
                    <polyline id="Path" points="39.4941532 58.56 39.4941532 61.44 37 62.88 34.5058468 61.44 34.5058468 58.56 37 57.12"></polyline>
                    <polyline id="Path" points="47.4941532 58.56 47.4941532 61.44 45 62.88 42.5058468 61.44 42.5058468 58.56 45 57.12"></polyline>
                    <polyline id="Path" points="55.4941532 58.56 55.4941532 61.44 53 62.88 50.5058468 61.44 50.5058468 58.56 53 57.12"></polyline>
                    <polyline id="Path" points="63.4941532 58.56 63.4941532 61.44 61 62.88 58.5058468 61.44 58.5058468 58.56 61 57.12"></polyline>
                    <polyline id="Path" points="71.4941532 58.56 71.4941532 61.44 69 62.88 66.5058468 61.44 66.5058468 58.56 69 57.12"></polyline>
                    <polyline id="Path" points="79.4941532 58.56 79.4941532 61.44 77 62.88 74.5058468 61.44 74.5058468 58.56 77 57.12"></polyline>
                    <polyline id="Path" points="87.4941532 58.56 87.4941532 61.44 85 62.88 82.5058468 61.44 82.5058468 58.56 85 57.12"></polyline>
                    <polyline id="Path" points="96.4941532 58.56 96.4941532 61.44 94 62.88 91.5058468 61.44 91.5058468 58.56 94 57.12"></polyline>
                    <polyline id="Path" points="105.494153 58.56 105.494153 61.44 103 62.88 100.505847 61.44 100.505847 58.56 103 57.12"></polyline>
                    <polyline id="Path" points="113.494153 58.56 113.494153 61.44 111 62.88 108.505847 61.44 108.505847 58.56 111 57.12"></polyline>
                    <polyline id="Path" points="121.494153 58.56 121.494153 61.44 119 62.88 116.505847 61.44 116.505847 58.56 119 57.12"></polyline>
                    <polyline id="Path" points="130.494153 58.56 130.494153 61.44 128 62.88 125.505847 61.44 125.505847 58.56 128 57.12"></polyline>
                    <polyline id="Path" points="138.494153 58.56 138.494153 61.44 136 62.88 133.505847 61.44 133.505847 58.56 136 57.12"></polyline>
                    <polyline id="Path" points="146.494153 58.56 146.494153 61.44 144 62.88 141.505847 61.44 141.505847 58.56 144 57.12"></polyline>
                    <polyline id="Path" points="154.494153 58.56 154.494153 61.44 152 62.88 149.505847 61.44 149.505847 58.56 152 57.12"></polyline>
                    <polyline id="Path" points="162.494153 58.56 162.494153 61.44 160 62.88 157.505847 61.44 157.505847 58.56 160 57.12"></polyline>
                    <polyline id="Path" points="170.494153 58.56 170.494153 61.44 168 62.88 165.505847 61.44 165.505847 58.56 168 57.12"></polyline>
                    <polyline id="Path" points="178.494153 58.56 178.494153 61.44 176 62.88 173.505847 61.44 173.505847 58.56 176 57.12"></polyline>
                    <polyline id="Path" points="10.4941532 66.56 10.4941532 69.44 8 70.88 5.50584684 69.44 5.50584684 66.56 8 65.12"></polyline>
                    <polyline id="Path" points="18.4941532 66.56 18.4941532 69.44 16 70.88 13.5058468 69.44 13.5058468 66.56 16 65.12"></polyline>
                    <polyline id="Path" points="26.4941532 66.56 26.4941532 69.44 24 70.88 21.5058468 69.44 21.5058468 66.56 24 65.12"></polyline>
                    <polyline id="Path" points="34.4941532 66.56 34.4941532 69.44 32 70.88 29.5058468 69.44 29.5058468 66.56 32 65.12"></polyline>
                    <polyline id="Path" points="43.4941532 66.56 43.4941532 69.44 41 70.88 38.5058468 69.44 38.5058468 66.56 41 65.12"></polyline>
                    <polyline id="Path" points="51.4941532 66.56 51.4941532 69.44 49 70.88 46.5058468 69.44 46.5058468 66.56 49 65.12"></polyline>
                    <polyline id="Path" points="59.4941532 66.56 59.4941532 69.44 57 70.88 54.5058468 69.44 54.5058468 66.56 57 65.12"></polyline>
                    <polyline id="Path" points="67.4941532 66.56 67.4941532 69.44 65 70.88 62.5058468 69.44 62.5058468 66.56 65 65.12"></polyline>
                    <polyline id="Path" points="75.4941532 66.56 75.4941532 69.44 73 70.88 70.5058468 69.44 70.5058468 66.56 73 65.12"></polyline>
                    <polyline id="Path" points="84.4941532 66.56 84.4941532 69.44 82 70.88 79.5058468 69.44 79.5058468 66.56 82 65.12"></polyline>
                    <polyline id="Path" points="92.4941532 66.56 92.4941532 69.44 90 70.88 87.5058468 69.44 87.5058468 66.56 90 65.12"></polyline>
                    <polyline id="Path" points="100.494153 66.56 100.494153 69.44 98 70.88 95.5058468 69.44 95.5058468 66.56 98 65.12"></polyline>
                    <polyline id="Path" points="109.494153 66.56 109.494153 69.44 107 70.88 104.505847 69.44 104.505847 66.56 107 65.12"></polyline>
                    <polyline id="Path" points="117.494153 66.56 117.494153 69.44 115 70.88 112.505847 69.44 112.505847 66.56 115 65.12"></polyline>
                    <polyline id="Path" points="125.494153 66.56 125.494153 69.44 123 70.88 120.505847 69.44 120.505847 66.56 123 65.12"></polyline>
                    <polyline id="Path" points="133.494153 66.56 133.494153 69.44 131 70.88 128.505847 69.44 128.505847 66.56 131 65.12"></polyline>
                    <polyline id="Path" points="142.494153 66.56 142.494153 69.44 140 70.88 137.505847 69.44 137.505847 66.56 140 65.12"></polyline>
                    <polyline id="Path" points="150.494153 66.56 150.494153 69.44 148 70.88 145.505847 69.44 145.505847 66.56 148 65.12"></polyline>
                    <polyline id="Path" points="158.494153 66.56 158.494153 69.44 156 70.88 153.505847 69.44 153.505847 66.56 156 65.12"></polyline>
                    <polyline id="Path" points="166.494153 66.56 166.494153 69.44 164 70.88 161.505847 69.44 161.505847 66.56 164 65.12"></polyline>
                    <polyline id="Path" points="174.494153 66.56 174.494153 69.44 172 70.88 169.505847 69.44 169.505847 66.56 172 65.12"></polyline>
                    <polyline id="Path" points="183.494153 66.56 183.494153 69.44 181 70.88 178.505847 69.44 178.505847 66.56 181 65.12"></polyline>
                    <polyline id="Path" points="6.49415316 73.56 6.49415316 76.44 4 77.88 1.50584684 76.44 1.50584684 73.56 4 72.12"></polyline>
                    <polyline id="Path" points="14.4941532 73.56 14.4941532 76.44 12 77.88 9.50584684 76.44 9.50584684 73.56 12 72.12"></polyline>
                    <polyline id="Path" points="22.4941532 73.56 22.4941532 76.44 20 77.88 17.5058468 76.44 17.5058468 73.56 20 72.12"></polyline>
                    <polyline id="Path" points="30.4941532 73.56 30.4941532 76.44 28 77.88 25.5058468 76.44 25.5058468 73.56 28 72.12"></polyline>
                    <polyline id="Path" points="39.4941532 73.56 39.4941532 76.44 37 77.88 34.5058468 76.44 34.5058468 73.56 37 72.12"></polyline>
                    <polyline id="Path" points="47.4941532 73.56 47.4941532 76.44 45 77.88 42.5058468 76.44 42.5058468 73.56 45 72.12"></polyline>
                    <polyline id="Path" points="55.4941532 73.56 55.4941532 76.44 53 77.88 50.5058468 76.44 50.5058468 73.56 53 72.12"></polyline>
                    <polyline id="Path" points="63.4941532 73.56 63.4941532 76.44 61 77.88 58.5058468 76.44 58.5058468 73.56 61 72.12"></polyline>
                    <polyline id="Path" points="71.4941532 73.56 71.4941532 76.44 69 77.88 66.5058468 76.44 66.5058468 73.56 69 72.12"></polyline>
                    <polyline id="Path" points="79.4941532 73.56 79.4941532 76.44 77 77.88 74.5058468 76.44 74.5058468 73.56 77 72.12"></polyline>
                    <polyline id="Path" points="87.4941532 73.56 87.4941532 76.44 85 77.88 82.5058468 76.44 82.5058468 73.56 85 72.12"></polyline>
                    <polyline id="Path" points="96.4941532 73.56 96.4941532 76.44 94 77.88 91.5058468 76.44 91.5058468 73.56 94 72.12"></polyline>
                    <polyline id="Path" points="105.494153 73.56 105.494153 76.44 103 77.88 100.505847 76.44 100.505847 73.56 103 72.12"></polyline>
                    <polyline id="Path" points="113.494153 73.56 113.494153 76.44 111 77.88 108.505847 76.44 108.505847 73.56 111 72.12"></polyline>
                    <polyline id="Path" points="121.494153 73.56 121.494153 76.44 119 77.88 116.505847 76.44 116.505847 73.56 119 72.12"></polyline>
                    <polyline id="Path" points="130.494153 73.56 130.494153 76.44 128 77.88 125.505847 76.44 125.505847 73.56 128 72.12"></polyline>
                    <polyline id="Path" points="138.494153 73.56 138.494153 76.44 136 77.88 133.505847 76.44 133.505847 73.56 136 72.12"></polyline>
                    <polyline id="Path" points="146.494153 73.56 146.494153 76.44 144 77.88 141.505847 76.44 141.505847 73.56 144 72.12"></polyline>
                    <polyline id="Path" points="154.494153 73.56 154.494153 76.44 152 77.88 149.505847 76.44 149.505847 73.56 152 72.12"></polyline>
                    <polyline id="Path" points="162.494153 73.56 162.494153 76.44 160 77.88 157.505847 76.44 157.505847 73.56 160 72.12"></polyline>
                    <polyline id="Path" points="170.494153 73.56 170.494153 76.44 168 77.88 165.505847 76.44 165.505847 73.56 168 72.12"></polyline>
                    <polyline id="Path" points="178.494153 73.56 178.494153 76.44 176 77.88 173.505847 76.44 173.505847 73.56 176 72.12"></polyline>
                    <polyline id="Path" points="187.494153 73.56 187.494153 76.44 185 77.88 182.505847 76.44 182.505847 73.56 185 72.12"></polyline>
                    <polyline id="Path" points="10.4941532 80.56 10.4941532 83.44 8 84.88 5.50584684 83.44 5.50584684 80.56 8 79.12"></polyline>
                    <polyline id="Path" points="18.4941532 80.56 18.4941532 83.44 16 84.88 13.5058468 83.44 13.5058468 80.56 16 79.12"></polyline>
                    <polyline id="Path" points="26.4941532 80.56 26.4941532 83.44 24 84.88 21.5058468 83.44 21.5058468 80.56 24 79.12"></polyline>
                    <polyline id="Path" points="34.4941532 80.56 34.4941532 83.44 32 84.88 29.5058468 83.44 29.5058468 80.56 32 79.12"></polyline>
                    <polyline id="Path" points="43.4941532 80.56 43.4941532 83.44 41 84.88 38.5058468 83.44 38.5058468 80.56 41 79.12"></polyline>
                    <polyline id="Path" points="51.4941532 80.56 51.4941532 83.44 49 84.88 46.5058468 83.44 46.5058468 80.56 49 79.12"></polyline>
                    <polyline id="Path" points="59.4941532 80.56 59.4941532 83.44 57 84.88 54.5058468 83.44 54.5058468 80.56 57 79.12"></polyline>
                    <polyline id="Path" points="67.4941532 80.56 67.4941532 83.44 65 84.88 62.5058468 83.44 62.5058468 80.56 65 79.12"></polyline>
                    <polyline id="Path" points="75.4941532 80.56 75.4941532 83.44 73 84.88 70.5058468 83.44 70.5058468 80.56 73 79.12"></polyline>
                    <polyline id="Path" points="84.4941532 80.56 84.4941532 83.44 82 84.88 79.5058468 83.44 79.5058468 80.56 82 79.12"></polyline>
                    <polyline id="Path" points="92.4941532 80.56 92.4941532 83.44 90 84.88 87.5058468 83.44 87.5058468 80.56 90 79.12"></polyline>
                    <polyline id="Path" points="100.494153 80.56 100.494153 83.44 98 84.88 95.5058468 83.44 95.5058468 80.56 98 79.12"></polyline>
                    <polyline id="Path" points="109.494153 80.56 109.494153 83.44 107 84.88 104.505847 83.44 104.505847 80.56 107 79.12"></polyline>
                    <polyline id="Path" points="117.494153 80.56 117.494153 83.44 115 84.88 112.505847 83.44 112.505847 80.56 115 79.12"></polyline>
                    <polyline id="Path" points="125.494153 80.56 125.494153 83.44 123 84.88 120.505847 83.44 120.505847 80.56 123 79.12"></polyline>
                    <polyline id="Path" points="133.494153 80.56 133.494153 83.44 131 84.88 128.505847 83.44 128.505847 80.56 131 79.12"></polyline>
                    <polyline id="Path" points="142.494153 80.56 142.494153 83.44 140 84.88 137.505847 83.44 137.505847 80.56 140 79.12"></polyline>
                    <polyline id="Path" points="150.494153 80.56 150.494153 83.44 148 84.88 145.505847 83.44 145.505847 80.56 148 79.12"></polyline>
                    <polyline id="Path" points="158.494153 80.56 158.494153 83.44 156 84.88 153.505847 83.44 153.505847 80.56 156 79.12"></polyline>
                    <polyline id="Path" points="166.494153 80.56 166.494153 83.44 164 84.88 161.505847 83.44 161.505847 80.56 164 79.12"></polyline>
                    <polyline id="Path" points="174.494153 80.56 174.494153 83.44 172 84.88 169.505847 83.44 169.505847 80.56 172 79.12"></polyline>
                    <polyline id="Path" points="183.494153 80.56 183.494153 83.44 181 84.88 178.505847 83.44 178.505847 80.56 181 79.12"></polyline>
                    <polyline id="Path" points="191.494153 80.56 191.494153 83.44 189 84.88 186.505847 83.44 186.505847 80.56 189 79.12"></polyline>
                    <polyline id="Path" points="14.4941532 87.56 14.4941532 90.44 12 91.88 9.50584684 90.44 9.50584684 87.56 12 86.12"></polyline>
                    <polyline id="Path" points="22.4941532 87.56 22.4941532 90.44 20 91.88 17.5058468 90.44 17.5058468 87.56 20 86.12"></polyline>
                    <polyline id="Path" points="30.4941532 87.56 30.4941532 90.44 28 91.88 25.5058468 90.44 25.5058468 87.56 28 86.12"></polyline>
                    <polyline id="Path" points="39.4941532 87.56 39.4941532 90.44 37 91.88 34.5058468 90.44 34.5058468 87.56 37 86.12"></polyline>
                    <polyline id="Path" points="47.4941532 87.56 47.4941532 90.44 45 91.88 42.5058468 90.44 42.5058468 87.56 45 86.12"></polyline>
                    <polyline id="Path" points="55.4941532 87.56 55.4941532 90.44 53 91.88 50.5058468 90.44 50.5058468 87.56 53 86.12"></polyline>
                    <polyline id="Path" points="63.4941532 87.56 63.4941532 90.44 61 91.88 58.5058468 90.44 58.5058468 87.56 61 86.12"></polyline>
                    <polyline id="Path" points="71.4941532 87.56 71.4941532 90.44 69 91.88 66.5058468 90.44 66.5058468 87.56 69 86.12"></polyline>
                    <polyline id="Path" points="79.4941532 87.56 79.4941532 90.44 77 91.88 74.5058468 90.44 74.5058468 87.56 77 86.12"></polyline>
                    <polyline id="Path" points="87.4941532 87.56 87.4941532 90.44 85 91.88 82.5058468 90.44 82.5058468 87.56 85 86.12"></polyline>
                    <polyline id="Path" points="96.4941532 87.56 96.4941532 90.44 94 91.88 91.5058468 90.44 91.5058468 87.56 94 86.12"></polyline>
                    <polyline id="Path" points="105.494153 87.56 105.494153 90.44 103 91.88 100.505847 90.44 100.505847 87.56 103 86.12"></polyline>
                    <polyline id="Path" points="113.494153 87.56 113.494153 90.44 111 91.88 108.505847 90.44 108.505847 87.56 111 86.12"></polyline>
                    <polyline id="Path" points="121.494153 87.56 121.494153 90.44 119 91.88 116.505847 90.44 116.505847 87.56 119 86.12"></polyline>
                    <polyline id="Path" points="130.494153 87.56 130.494153 90.44 128 91.88 125.505847 90.44 125.505847 87.56 128 86.12"></polyline>
                    <polyline id="Path" points="138.494153 87.56 138.494153 90.44 136 91.88 133.505847 90.44 133.505847 87.56 136 86.12"></polyline>
                    <polyline id="Path" points="146.494153 87.56 146.494153 90.44 144 91.88 141.505847 90.44 141.505847 87.56 144 86.12"></polyline>
                    <polyline id="Path" points="154.494153 87.56 154.494153 90.44 152 91.88 149.505847 90.44 149.505847 87.56 152 86.12"></polyline>
                    <polyline id="Path" points="162.494153 87.56 162.494153 90.44 160 91.88 157.505847 90.44 157.505847 87.56 160 86.12"></polyline>
                    <polyline id="Path" points="170.494153 87.56 170.494153 90.44 168 91.88 165.505847 90.44 165.505847 87.56 168 86.12"></polyline>
                    <polyline id="Path" points="178.494153 87.56 178.494153 90.44 176 91.88 173.505847 90.44 173.505847 87.56 176 86.12"></polyline>
                    <polyline id="Path" points="187.494153 87.56 187.494153 90.44 185 91.88 182.505847 90.44 182.505847 87.56 185 86.12"></polyline>
                    <polyline id="Path" points="18.4941532 94.56 18.4941532 97.44 16 98.88 13.5058468 97.44 13.5058468 94.56 16 93.12"></polyline>
                    <polyline id="Path" points="26.4941532 94.56 26.4941532 97.44 24 98.88 21.5058468 97.44 21.5058468 94.56 24 93.12"></polyline>
                    <polyline id="Path" points="34.4941532 94.56 34.4941532 97.44 32 98.88 29.5058468 97.44 29.5058468 94.56 32 93.12"></polyline>
                    <polyline id="Path" points="43.4941532 94.56 43.4941532 97.44 41 98.88 38.5058468 97.44 38.5058468 94.56 41 93.12"></polyline>
                    <polyline id="Path" points="51.4941532 94.56 51.4941532 97.44 49 98.88 46.5058468 97.44 46.5058468 94.56 49 93.12"></polyline>
                    <polyline id="Path" points="59.4941532 94.56 59.4941532 97.44 57 98.88 54.5058468 97.44 54.5058468 94.56 57 93.12"></polyline>
                    <polyline id="Path" points="67.4941532 94.56 67.4941532 97.44 65 98.88 62.5058468 97.44 62.5058468 94.56 65 93.12"></polyline>
                    <polyline id="Path" points="75.4941532 94.56 75.4941532 97.44 73 98.88 70.5058468 97.44 70.5058468 94.56 73 93.12"></polyline>
                    <polyline id="Path" points="84.4941532 94.56 84.4941532 97.44 82 98.88 79.5058468 97.44 79.5058468 94.56 82 93.12"></polyline>
                    <polyline id="Path" points="92.4941532 94.56 92.4941532 97.44 90 98.88 87.5058468 97.44 87.5058468 94.56 90 93.12"></polyline>
                    <polyline id="Path" points="100.494153 94.56 100.494153 97.44 98 98.88 95.5058468 97.44 95.5058468 94.56 98 93.12"></polyline>
                    <polyline id="Path" points="109.494153 94.56 109.494153 97.44 107 98.88 104.505847 97.44 104.505847 94.56 107 93.12"></polyline>
                    <polyline id="Path" points="117.494153 94.56 117.494153 97.44 115 98.88 112.505847 97.44 112.505847 94.56 115 93.12"></polyline>
                    <polyline id="Path" points="125.494153 94.56 125.494153 97.44 123 98.88 120.505847 97.44 120.505847 94.56 123 93.12"></polyline>
                    <polyline id="Path" points="133.494153 94.56 133.494153 97.44 131 98.88 128.505847 97.44 128.505847 94.56 131 93.12"></polyline>
                    <polyline id="Path" points="142.494153 94.56 142.494153 97.44 140 98.88 137.505847 97.44 137.505847 94.56 140 93.12"></polyline>
                    <polyline id="Path" points="150.494153 94.56 150.494153 97.44 148 98.88 145.505847 97.44 145.505847 94.56 148 93.12"></polyline>
                    <polyline id="Path" points="158.494153 94.56 158.494153 97.44 156 98.88 153.505847 97.44 153.505847 94.56 156 93.12"></polyline>
                    <polyline id="Path" points="166.494153 94.56 166.494153 97.44 164 98.88 161.505847 97.44 161.505847 94.56 164 93.12"></polyline>
                    <polyline id="Path" points="174.494153 94.56 174.494153 97.44 172 98.88 169.505847 97.44 169.505847 94.56 172 93.12"></polyline>
                    <polyline id="Path" points="183.494153 94.56 183.494153 97.44 181 98.88 178.505847 97.44 178.505847 94.56 181 93.12"></polyline>
                    <polyline id="Path" points="191.494153 94.56 191.494153 97.44 189 98.88 186.505847 97.44 186.505847 94.56 189 93.12"></polyline>
                    <polyline id="Path" points="14.4941532 102.56 14.4941532 105.44 12 106.88 9.50584684 105.44 9.50584684 102.56 12 101.12"></polyline>
                    <polyline id="Path" points="22.4941532 102.56 22.4941532 105.44 20 106.88 17.5058468 105.44 17.5058468 102.56 20 101.12"></polyline>
                    <polyline id="Path" points="30.4941532 102.56 30.4941532 105.44 28 106.88 25.5058468 105.44 25.5058468 102.56 28 101.12"></polyline>
                    <polyline id="Path" points="39.4941532 102.56 39.4941532 105.44 37 106.88 34.5058468 105.44 34.5058468 102.56 37 101.12"></polyline>
                    <polyline id="Path" points="47.4941532 102.56 47.4941532 105.44 45 106.88 42.5058468 105.44 42.5058468 102.56 45 101.12"></polyline>
                    <polyline id="Path" points="55.4941532 102.56 55.4941532 105.44 53 106.88 50.5058468 105.44 50.5058468 102.56 53 101.12"></polyline>
                    <polyline id="Path" points="63.4941532 102.56 63.4941532 105.44 61 106.88 58.5058468 105.44 58.5058468 102.56 61 101.12"></polyline>
                    <polyline id="Path" points="71.4941532 102.56 71.4941532 105.44 69 106.88 66.5058468 105.44 66.5058468 102.56 69 101.12"></polyline>
                    <polyline id="Path" points="79.4941532 102.56 79.4941532 105.44 77 106.88 74.5058468 105.44 74.5058468 102.56 77 101.12"></polyline>
                    <polyline id="Path" points="87.4941532 102.56 87.4941532 105.44 85 106.88 82.5058468 105.44 82.5058468 102.56 85 101.12"></polyline>
                    <polyline id="Path" points="96.4941532 102.56 96.4941532 105.44 94 106.88 91.5058468 105.44 91.5058468 102.56 94 101.12"></polyline>
                    <polyline id="Path" points="105.494153 102.56 105.494153 105.44 103 106.88 100.505847 105.44 100.505847 102.56 103 101.12"></polyline>
                    <polyline id="Path" points="113.494153 102.56 113.494153 105.44 111 106.88 108.505847 105.44 108.505847 102.56 111 101.12"></polyline>
                    <polyline id="Path" points="121.494153 102.56 121.494153 105.44 119 106.88 116.505847 105.44 116.505847 102.56 119 101.12"></polyline>
                    <polyline id="Path" points="130.494153 102.56 130.494153 105.44 128 106.88 125.505847 105.44 125.505847 102.56 128 101.12"></polyline>
                    <polyline id="Path" points="138.494153 102.56 138.494153 105.44 136 106.88 133.505847 105.44 133.505847 102.56 136 101.12"></polyline>
                    <polyline id="Path" points="146.494153 102.56 146.494153 105.44 144 106.88 141.505847 105.44 141.505847 102.56 144 101.12"></polyline>
                    <polyline id="Path" points="154.494153 102.56 154.494153 105.44 152 106.88 149.505847 105.44 149.505847 102.56 152 101.12"></polyline>
                    <polyline id="Path" points="162.494153 102.56 162.494153 105.44 160 106.88 157.505847 105.44 157.505847 102.56 160 101.12"></polyline>
                    <polyline id="Path" points="170.494153 102.56 170.494153 105.44 168 106.88 165.505847 105.44 165.505847 102.56 168 101.12"></polyline>
                    <polyline id="Path" points="178.494153 102.56 178.494153 105.44 176 106.88 173.505847 105.44 173.505847 102.56 176 101.12"></polyline>
                    <polyline id="Path" points="187.494153 102.56 187.494153 105.44 185 106.88 182.505847 105.44 182.505847 102.56 185 101.12"></polyline>
                    <polyline id="Path" points="18.4941532 109.56 18.4941532 112.44 16 113.88 13.5058468 112.44 13.5058468 109.56 16 108.12"></polyline>
                    <polyline id="Path" points="26.4941532 109.56 26.4941532 112.44 24 113.88 21.5058468 112.44 21.5058468 109.56 24 108.12"></polyline>
                    <polyline id="Path" points="34.4941532 109.56 34.4941532 112.44 32 113.88 29.5058468 112.44 29.5058468 109.56 32 108.12"></polyline>
                    <polyline id="Path" points="43.4941532 109.56 43.4941532 112.44 41 113.88 38.5058468 112.44 38.5058468 109.56 41 108.12"></polyline>
                    <polyline id="Path" points="51.4941532 109.56 51.4941532 112.44 49 113.88 46.5058468 112.44 46.5058468 109.56 49 108.12"></polyline>
                    <polyline id="Path" points="59.4941532 109.56 59.4941532 112.44 57 113.88 54.5058468 112.44 54.5058468 109.56 57 108.12"></polyline>
                    <polyline id="Path" points="109.494153 109.56 109.494153 112.44 107 113.88 104.505847 112.44 104.505847 109.56 107 108.12"></polyline>
                    <polyline id="Path" points="117.494153 109.56 117.494153 112.44 115 113.88 112.505847 112.44 112.505847 109.56 115 108.12"></polyline>
                    <polyline id="Path" points="125.494153 109.56 125.494153 112.44 123 113.88 120.505847 112.44 120.505847 109.56 123 108.12"></polyline>
                    <polyline id="Path" points="133.494153 109.56 133.494153 112.44 131 113.88 128.505847 112.44 128.505847 109.56 131 108.12"></polyline>
                    <polyline id="Path" points="142.494153 109.56 142.494153 112.44 140 113.88 137.505847 112.44 137.505847 109.56 140 108.12"></polyline>
                    <polyline id="Path" points="150.494153 109.56 150.494153 112.44 148 113.88 145.505847 112.44 145.505847 109.56 148 108.12"></polyline>
                    <polyline id="Path" points="158.494153 109.56 158.494153 112.44 156 113.88 153.505847 112.44 153.505847 109.56 156 108.12"></polyline>
                    <polyline id="Path" points="166.494153 109.56 166.494153 112.44 164 113.88 161.505847 112.44 161.505847 109.56 164 108.12"></polyline>
                    <polyline id="Path" points="174.494153 109.56 174.494153 112.44 172 113.88 169.505847 112.44 169.505847 109.56 172 108.12"></polyline>
                    <polyline id="Path" points="183.494153 109.56 183.494153 112.44 181 113.88 178.505847 112.44 178.505847 109.56 181 108.12"></polyline>
                    <polyline id="Path" points="14.4941532 116.56 14.4941532 119.44 12 120.88 9.50584684 119.44 9.50584684 116.56 12 115.12"></polyline>
                    <polyline id="Path" points="22.4941532 116.56 22.4941532 119.44 20 120.88 17.5058468 119.44 17.5058468 116.56 20 115.12"></polyline>
                    <polyline id="Path" points="30.4941532 116.56 30.4941532 119.44 28 120.88 25.5058468 119.44 25.5058468 116.56 28 115.12"></polyline>
                    <polyline id="Path" points="39.4941532 116.56 39.4941532 119.44 37 120.88 34.5058468 119.44 34.5058468 116.56 37 115.12"></polyline>
                    <polyline id="Path" points="47.4941532 116.56 47.4941532 119.44 45 120.88 42.5058468 119.44 42.5058468 116.56 45 115.12"></polyline>
                    <polyline id="Path" points="113.494153 116.56 113.494153 119.44 111 120.88 108.505847 119.44 108.505847 116.56 111 115.12"></polyline>
                    <polyline id="Path" points="121.494153 116.56 121.494153 119.44 119 120.88 116.505847 119.44 116.505847 116.56 119 115.12"></polyline>
                    <polyline id="Path" points="130.494153 116.56 130.494153 119.44 128 120.88 125.505847 119.44 125.505847 116.56 128 115.12"></polyline>
                    <polyline id="Path" points="138.494153 116.56 138.494153 119.44 136 120.88 133.505847 119.44 133.505847 116.56 136 115.12"></polyline>
                    <polyline id="Path" points="146.494153 116.56 146.494153 119.44 144 120.88 141.505847 119.44 141.505847 116.56 144 115.12"></polyline>
                    <polyline id="Path" points="154.494153 116.56 154.494153 119.44 152 120.88 149.505847 119.44 149.505847 116.56 152 115.12"></polyline>
                    <polyline id="Path" points="162.494153 116.56 162.494153 119.44 160 120.88 157.505847 119.44 157.505847 116.56 160 115.12"></polyline>
                    <polyline id="Path" points="170.494153 116.56 170.494153 119.44 168 120.88 165.505847 119.44 165.505847 116.56 168 115.12"></polyline>
                    <polyline id="Path" points="178.494153 116.56 178.494153 119.44 176 120.88 173.505847 119.44 173.505847 116.56 176 115.12"></polyline>
                    <polyline id="Path" points="117.494153 123.56 117.494153 126.44 115 127.88 112.505847 126.44 112.505847 123.56 115 122.12"></polyline>
                    <polyline id="Path" points="125.494153 123.56 125.494153 126.44 123 127.88 120.505847 126.44 120.505847 123.56 123 122.12"></polyline>
                    <polyline id="Path" points="133.494153 123.56 133.494153 126.44 131 127.88 128.505847 126.44 128.505847 123.56 131 122.12"></polyline>
                    <polyline id="Path" points="142.494153 123.56 142.494153 126.44 140 127.88 137.505847 126.44 137.505847 123.56 140 122.12"></polyline>
                    <polyline id="Path" points="150.494153 123.56 150.494153 126.44 148 127.88 145.505847 126.44 145.505847 123.56 148 122.12"></polyline>
                    <polyline id="Path" points="158.494153 123.56 158.494153 126.44 156 127.88 153.505847 126.44 153.505847 123.56 156 122.12"></polyline>
                    <polyline id="Path" points="166.494153 123.56 166.494153 126.44 164 127.88 161.505847 126.44 161.505847 123.56 164 122.12"></polyline>
                    <polyline id="Path" points="174.494153 123.56 174.494153 126.44 172 127.88 169.505847 126.44 169.505847 123.56 172 122.12"></polyline>
                    <polyline id="Path" points="288.494153 123.56 288.494153 126.44 286 127.88 283.505847 126.44 283.505847 123.56 286 122.12"></polyline>
                    <polyline id="Path" points="130.494153 130.56 130.494153 133.44 128 134.88 125.505847 133.44 125.505847 130.56 128 129.12"></polyline>
                    <polyline id="Path" points="138.494153 130.56 138.494153 133.44 136 134.88 133.505847 133.44 133.505847 130.56 136 129.12"></polyline>
                    <polyline id="Path" points="146.494153 130.56 146.494153 133.44 144 134.88 141.505847 133.44 141.505847 130.56 144 129.12"></polyline>
                    <polyline id="Path" points="154.494153 130.56 154.494153 133.44 152 134.88 149.505847 133.44 149.505847 130.56 152 129.12"></polyline>
                    <polyline id="Path" points="162.494153 130.56 162.494153 133.44 160 134.88 157.505847 133.44 157.505847 130.56 160 129.12"></polyline>
                    <polyline id="Path" points="170.494153 130.56 170.494153 133.44 168 134.88 165.505847 133.44 165.505847 130.56 168 129.12"></polyline>
                    <polyline id="Path" points="293.494153 130.56 293.494153 133.44 291 134.88 288.505847 133.44 288.505847 130.56 291 129.12"></polyline>
                    <polyline id="Path" points="133.494153 138.56 133.494153 141.44 131 142.88 128.505847 141.44 128.505847 138.56 131 137.12"></polyline>
                    <polyline id="Path" points="142.494153 138.56 142.494153 141.44 140 142.88 137.505847 141.44 137.505847 138.56 140 137.12"></polyline>
                    <polyline id="Path" points="150.494153 138.56 150.494153 141.44 148 142.88 145.505847 141.44 145.505847 138.56 148 137.12"></polyline>
                    <polyline id="Path" points="158.494153 138.56 158.494153 141.44 156 142.88 153.505847 141.44 153.505847 138.56 156 137.12"></polyline>
                    <polyline id="Path" points="166.494153 138.56 166.494153 141.44 164 142.88 161.505847 141.44 161.505847 138.56 164 137.12"></polyline>
                    <polyline id="Path" points="174.494153 138.56 174.494153 141.44 172 142.88 169.505847 141.44 169.505847 138.56 172 137.12"></polyline>
                    <polyline id="Path" points="297.494153 138.56 297.494153 141.44 295 142.88 292.505847 141.44 292.505847 138.56 295 137.12"></polyline>
                    <polyline id="Path" points="146.494153 145.56 146.494153 148.44 144 149.88 141.505847 148.44 141.505847 145.56 144 144.12"></polyline>
                    <polyline id="Path" points="293.494153 145.56 293.494153 148.44 291 149.88 288.505847 148.44 288.505847 145.56 291 144.12"></polyline>
                    <polyline id="Path" points="301.494153 145.56 301.494153 148.44 299 149.88 296.505847 148.44 296.505847 145.56 299 144.12"></polyline>
                    <polyline id="Path" points="310.494153 145.56 310.494153 148.44 308 149.88 305.505847 148.44 305.505847 145.56 308 144.12"></polyline>
                    <polyline id="Path" points="297.494153 152.56 297.494153 155.44 295 156.88 292.505847 155.44 292.505847 152.56 295 151.12"></polyline>
                    <polyline id="Path" points="154.494153 159.56 154.494153 162.44 152 163.88 149.505847 162.44 149.505847 159.56 152 158.12"></polyline>
                    <polyline id="Path" points="162.494153 159.56 162.494153 162.44 160 163.88 157.505847 162.44 157.505847 159.56 160 158.12"></polyline>
                    <polyline id="Path" points="285.494153 159.56 285.494153 162.44 283 163.88 280.505847 162.44 280.505847 159.56 283 158.12"></polyline>
                    <polyline id="Path" points="158.494153 166.56 158.494153 169.44 156 170.88 153.505847 169.44 153.505847 166.56 156 165.12"></polyline>
                    <polyline id="Path" points="166.494153 166.56 166.494153 169.44 164 170.88 161.505847 169.44 161.505847 166.56 164 165.12"></polyline>
                    <polyline id="Path" points="280.494153 166.56 280.494153 169.44 278 170.88 275.505847 169.44 275.505847 166.56 278 165.12"></polyline>
                    <polyline id="Path" points="288.494153 166.56 288.494153 169.44 286 170.88 283.505847 169.44 283.505847 166.56 286 165.12"></polyline>
                    <polyline id="Path" points="162.494153 173.56 162.494153 176.44 160 177.88 157.505847 176.44 157.505847 173.56 160 172.12"></polyline>
                    <polyline id="Path" points="277.494153 173.56 277.494153 176.44 275 177.88 272.505847 176.44 272.505847 173.56 275 172.12"></polyline>
                    <polyline id="Path" points="264.494153 180.56 264.494153 183.44 262 184.88 259.505847 183.44 259.505847 180.56 262 179.12"></polyline>
                    <polyline id="Path" points="272.494153 180.56 272.494153 183.44 270 184.88 267.505847 183.44 267.505847 180.56 270 179.12"></polyline>
                    <polyline id="Path" points="260.494153 187.56 260.494153 190.44 258 191.88 255.505847 190.44 255.505847 187.56 258 186.12"></polyline>
                    <polyline id="Path" points="268.494153 187.56 268.494153 190.44 266 191.88 263.505847 190.44 263.505847 187.56 266 186.12"></polyline>
                    <polyline id="Path" points="264.494153 194.56 264.494153 197.44 262 198.88 259.505847 197.44 259.505847 194.56 262 193.12"></polyline>
                </g>
            </g>
        </g>
    </g>
</svg>